<?xml version="1.0" encoding="UTF-8"?>
<!DOCTYPE svg PUBLIC "-//W3C//DTD SVG 1.1//EN" "http://www.w3.org/Graphics/SVG/1.1/DTD/svg11.dtd">
<svg xmlns="http://www.w3.org/2000/svg" version="1.1" width="449px" height="362px" style="shape-rendering:geometricPrecision; text-rendering:geometricPrecision; image-rendering:optimizeQuality; fill-rule:evenodd; clip-rule:evenodd" xmlns:xlink="http://www.w3.org/1999/xlink">
<g><path style="opacity:1" fill="#3db2e6" d="M 125.5,-0.5 C 147.833,-0.5 170.167,-0.5 192.5,-0.5C 216.008,0.260839 239.675,1.09417 263.5,2C 299.676,34.6772 335.676,67.5105 371.5,100.5C 352.131,93.6936 332.797,86.027 313.5,77.5C 309.261,85.6467 305.261,93.9801 301.5,102.5C 270.023,63.2617 229.023,42.9284 178.5,41.5C 180.293,36.1246 182.293,30.7913 184.5,25.5C 184.291,24.914 183.957,24.414 183.5,24C 163.962,16.0571 144.629,7.89041 125.5,-0.5 Z"/></g>
<g><path style="opacity:1" fill="#f7c1d8" d="M 319.5,231.5 C 320.203,216.421 318.203,201.755 313.5,187.5C 294.365,132.543 256.031,100.043 198.5,90C 178.191,87.4644 158.191,88.9644 138.5,94.5C 139.513,82.035 135.18,71.8684 125.5,64C 183.046,46.6421 234.713,57.3088 280.5,96C 320.363,132.258 334.53,176.758 323,229.5C 322.184,230.823 321.017,231.489 319.5,231.5 Z"/></g>
<g><path style="opacity:1" fill="#f05f62" d="M 96.5,59.5 C 120.175,58.6762 131.675,70.0095 131,93.5C 125.866,110.617 114.366,118.117 96.5,116C 76.2005,108.126 70.0338,93.9593 78,73.5C 82.4901,66.5166 88.6568,61.8499 96.5,59.5 Z"/></g>
<g><path style="opacity:1" fill="#f05f62" d="M 154.5,361.5 C 146.5,361.5 138.5,361.5 130.5,361.5C 56.9228,346.59 13.2561,302.256 -0.5,228.5C -0.5,216.167 -0.5,203.833 -0.5,191.5C 6.45746,145.58 29.1241,109.58 67.5,83.5C 68.1014,104.429 78.4347,117.762 98.5,123.5C 50.1185,160.464 32.9519,208.797 47,268.5C 64.7401,320.406 100.573,351.406 154.5,361.5 Z"/></g>
<g><path style="opacity:1" fill="#f6a160" d="M 137.5,127.5 C 153.341,126.844 162.341,134.344 164.5,150C 162.934,163.733 155.267,171.233 141.5,172.5C 121.621,168.076 115.455,156.409 123,137.5C 126.689,132.28 131.522,128.947 137.5,127.5 Z"/></g>
<g><path style="opacity:1" fill="#f6a060" d="M 164.5,355.5 C 173.452,358.263 182.452,360.263 191.5,361.5C 181.5,361.5 171.5,361.5 161.5,361.5C 105.611,349.776 72.444,315.776 62,259.5C 57.6006,210.978 75.2672,172.978 115,145.5C 114.562,162.23 122.395,172.896 138.5,177.5C 101.404,205.271 87.9043,241.938 98,287.5C 107.986,321.486 129.652,344.486 163,356.5C 163.765,356.43 164.265,356.097 164.5,355.5 Z"/></g>
<g><path style="opacity:1" fill="#3db1e5" d="M 253.5,187.5 C 263.855,187.168 274.188,187.501 284.5,188.5C 263.64,203.86 242.64,219.027 221.5,234C 234.167,234.333 246.833,234.667 259.5,235C 273.385,237.271 280.385,245.437 280.5,259.5C 278.628,272.859 276.628,286.192 274.5,299.5C 238.832,299.333 203.165,299.5 167.5,300C 160.327,319.23 146.66,328.397 126.5,327.5C 126.96,321.076 127.96,314.743 129.5,308.5C 139.008,307.158 144.841,301.824 147,292.5C 151.168,270.155 155.335,247.821 159.5,225.5C 166.803,224.503 174.137,224.169 181.5,224.5C 178.167,243.5 174.833,262.5 171.5,281.5C 198.841,281.833 226.175,281.5 253.5,280.5C 256.256,274.433 257.09,268.099 256,261.5C 255.167,259.333 253.667,257.833 251.5,257C 230.9,255.535 210.234,255.035 189.5,255.5C 190.675,246.786 192.175,238.12 194,229.5C 214.013,215.637 233.847,201.637 253.5,187.5 Z"/></g>
<g><path style="opacity:1" fill="#3db2e6" d="M 313.5,187.5 C 318.203,201.755 320.203,216.421 319.5,231.5C 315.5,254.167 311.5,276.833 307.5,299.5C 299.833,299.5 292.167,299.5 284.5,299.5C 291.106,262.866 297.606,226.199 304,189.5C 306.804,187.656 309.97,186.989 313.5,187.5 Z"/></g>
<g><path style="opacity:1" fill="#3db2e6" d="M 350.5,191.5 C 357.167,191.5 363.833,191.5 370.5,191.5C 369.608,198.516 368.608,205.516 367.5,212.5C 360.468,212.83 353.468,212.497 346.5,211.5C 347.834,204.828 349.167,198.161 350.5,191.5 Z"/></g>
<g><path style="opacity:1" fill="#3db2e6" d="M 448.5,191.5 C 448.5,193.5 448.5,195.5 448.5,197.5C 446.978,202.273 445.978,207.273 445.5,212.5C 438.468,212.83 431.468,212.497 424.5,211.5C 425.833,205.167 427.167,198.833 428.5,192.5C 435.134,191.503 441.8,191.17 448.5,191.5 Z"/></g>
<g><path style="opacity:1" fill="#3db2e6" d="M 343.5,222.5 C 364.268,220.632 379.768,228.632 390,246.5C 393.542,257.966 394.376,269.633 392.5,281.5C 399.167,281.5 405.833,281.5 412.5,281.5C 415.557,262.828 418.723,244.161 422,225.5C 429.413,224.519 436.913,224.186 444.5,224.5C 440.87,249.481 436.536,274.315 431.5,299C 393.168,299.5 354.835,299.667 316.5,299.5C 317.5,293.501 318.5,287.501 319.5,281.5C 336.833,281.5 354.167,281.5 371.5,281.5C 376.188,256.538 365.855,243.538 340.5,242.5C 341.933,235.902 342.933,229.236 343.5,222.5 Z"/></g>
<g><path style="opacity:0.004" fill="#cb6632" d="M 132.5,330.5 C 131.833,329.167 131.833,329.167 132.5,330.5 Z"/></g>
<g><path style="opacity:0.004" fill="#cb6632" d="M 132.5,330.5 C 133.833,331.167 133.833,331.167 132.5,330.5 Z"/></g>
<g><path style="opacity:0.004" fill="#cb6632" d="M 135.5,334.5 C 134.833,333.167 134.833,333.167 135.5,334.5 Z"/></g>
<g><path style="opacity:0.004" fill="#cb6632" d="M 135.5,334.5 C 136.833,335.167 136.833,335.167 135.5,334.5 Z"/></g>
<g><path style="opacity:0.004" fill="#cf6432" d="M 154.5,350.5 C 155.833,351.167 155.833,351.167 154.5,350.5 Z"/></g>
<g><path style="opacity:0.008" fill="#d06432" d="M 156.5,351.5 C 157.833,352.167 157.833,352.167 156.5,351.5 Z"/></g>
<g><path style="opacity:0.008" fill="#d06432" d="M 158.5,352.5 C 159.833,353.167 159.833,353.167 158.5,352.5 Z"/></g>
<g><path style="opacity:0.02" fill="#d16332" d="M 160.5,353.5 C 161.833,354.167 161.833,354.167 160.5,353.5 Z"/></g>
<g><path style="opacity:0.022" fill="#d06432" d="M 164.5,355.5 C 163.761,355.631 163.094,355.464 162.5,355C 163.437,354.308 164.103,354.475 164.5,355.5 Z"/></g>
</svg>
